<svg xmlns="http://www.w3.org/2000/svg" viewBox="0 0 100.3 79.03"><defs><style>.cls-1{fill:#e6007e;stroke:#312783;stroke-miterlimit:10;stroke-width:2px;}</style></defs><g id="Capa_2" data-name="Capa 2"><g id="Capa_1-2" data-name="Capa 1"><path class="cls-1" d="M87.3,1H13A12,12,0,0,0,1,13V48.74a12,12,0,0,0,12,12H42l7.71,16,8.11-16H87.3a12,12,0,0,0,12-12V13A12,12,0,0,0,87.3,1ZM52.93,46.73a3.13,3.13,0,0,1-2,.64H40.77a9.21,9.21,0,0,1-4-1,6.92,6.92,0,0,1-2.89-2.24l-6.3-9.88a8.54,8.54,0,0,1-1.27-4.38,7.53,7.53,0,0,1,1.21-4.29l6.36-9.78a7.77,7.77,0,0,1,2.82-2.41,7.83,7.83,0,0,1,3.71-1H51.16a2.93,2.93,0,0,1,1.93.66,2,2,0,0,1,.79,1.55,2,2,0,0,1-.79,1.6,2.92,2.92,0,0,1-1.93.67H40.77a2.44,2.44,0,0,0-2.11,1.24l-6,9.16a4.54,4.54,0,0,0-.71,2.56,4.89,4.89,0,0,0,.78,2.75l5.77,9a2.82,2.82,0,0,0,2.66,1.39H51a3.13,3.13,0,0,1,2,.65,1.91,1.91,0,0,1,0,3.14Zm3.4-16a1.05,1.05,0,0,1-.3.75,1,1,0,0,1-.74.31H53.15a1,1,0,0,1-.74-.31,1,1,0,0,1-.3-.73V29a1,1,0,0,1,.31-.74,1.06,1.06,0,0,1,.76-.3h2.11a1,1,0,0,1,.73.3,1,1,0,0,1,.31.74Zm8.34,0a1.05,1.05,0,0,1-.3.75,1,1,0,0,1-.74.31H61.49a1,1,0,0,1-.73-.31,1,1,0,0,1-.31-.73V29a1,1,0,0,1,.31-.74,1.06,1.06,0,0,1,.76-.3h2.11a1,1,0,0,1,.73.3,1,1,0,0,1,.31.74Zm8.62,0a1,1,0,0,1-.31.75,1,1,0,0,1-.74.31H70.11a1,1,0,0,1-.74-.31,1,1,0,0,1-.31-.73V29a1,1,0,0,1,.31-.74,1.06,1.06,0,0,1,.76-.3h2.11a1,1,0,0,1,1.05,1Z"/></g></g></svg>